<?xml version="1.0" standalone="no"?>
<!DOCTYPE svg PUBLIC "-//W3C//DTD SVG 20010904//EN"
 "http://www.w3.org/TR/2001/REC-SVG-20010904/DTD/svg10.dtd">
<svg version="1.0" xmlns="http://www.w3.org/2000/svg"
 width="500.000000pt" height="500.000000pt" viewBox="0 0 500.000000 500.000000"
 preserveAspectRatio="xMidYMid meet">

<g transform="translate(0.000000,500.000000) scale(0.100000,-0.100000)"
fill="#000000" stroke="none">
<path d="M0 2500 l0 -2500 2500 0 2500 0 0 2500 0 2500 -2500 0 -2500 0 0
-2500z m2715 1744 c164 -31 314 -92 455 -187 91 -61 261 -230 315 -312 89
-135 158 -306 187 -461 19 -104 16 -341 -6 -444 -104 -484 -482 -851 -961
-934 -530 -92 -1071 195 -1287 684 -122 278 -134 623 -31 900 203 542 763 860
1328 754z m-1060 -255 c4 -5 -17 -36 -47 -67 -354 -372 -437 -926 -208 -1387
71 -142 135 -231 247 -342 228 -225 522 -344 853 -344 458 -1 865 242 1088
651 70 129 142 379 142 496 0 24 5 34 15 34 20 0 20 -72 -1 -181 -92 -488
-447 -870 -922 -994 -263 -69 -545 -53 -789 45 -348 139 -624 439 -737 798
-44 142 -59 258 -53 427 12 318 119 577 341 823 49 53 60 60 71 41z m12 -2435
c57 -42 63 -68 63 -296 l0 -208 -45 0 -45 0 0 208 c0 148 -3 211 -12 220 -8 8
-62 12 -175 12 l-163 0 0 -95 0 -95 150 0 150 0 0 -40 0 -40 -150 0 -150 0 0
-85 0 -85 -45 0 -45 0 0 220 0 220 40 0 c40 0 40 0 40 38 0 21 3 42 8 46 4 4
84 6 179 4 155 -3 174 -5 200 -24z m323 -68 c0 -79 3 -97 21 -120 18 -22 28
-26 75 -26 l54 0 0 -39 0 -39 -57 -4 c-79 -7 -93 -26 -93 -129 l0 -79 -40 0
-40 0 0 94 c0 87 2 97 26 126 l27 31 -24 25 c-22 23 -24 36 -27 140 l-4 114
41 0 41 0 0 -94z m440 -15 c0 -103 -1 -111 -26 -140 l-26 -31 26 -31 c24 -28
26 -38 26 -125 l0 -94 -40 0 -40 0 0 79 c0 103 -14 122 -93 129 l-57 4 0 39 0
39 54 0 c47 0 57 4 75 26 18 23 21 41 21 120 l0 94 40 0 40 0 0 -109z m660 64
l0 -45 -240 0 -240 0 0 38 c0 21 3 42 7 45 3 4 111 7 240 7 l233 0 0 -45z
m642 22 c28 -19 68 -90 68 -120 0 -13 -9 -17 -45 -17 -35 0 -45 4 -45 17 0 9
-7 25 -17 35 -14 16 -34 18 -175 18 l-159 0 3 -57 c4 -79 14 -83 204 -83 140
0 153 -2 179 -22 37 -29 55 -76 55 -143 l0 -55 -40 0 -40 0 0 -40 0 -40 -172
0 c-200 0 -224 8 -258 83 -31 67 -27 77 25 77 38 0 45 -3 45 -20 0 -11 9 -29
20 -40 18 -18 33 -20 175 -20 l155 0 0 58 c0 32 -5 63 -12 70 -8 8 -60 12
-166 12 -123 0 -161 3 -189 17 -45 21 -72 78 -73 151 l0 52 40 0 c40 0 40 0
40 38 0 21 3 42 8 46 4 4 84 6 177 4 144 -3 174 -6 197 -21z m-842 -236 c0
-65 5 -132 11 -149 12 -35 30 -42 122 -42 l67 0 0 -41 0 -41 -99 4 c-90 3
-102 5 -126 28 -49 46 -55 68 -55 220 l0 140 40 0 40 0 0 -119z m-1040 -231
l0 -40 -45 0 -45 0 0 40 0 40 45 0 45 0 0 -40z m700 0 l0 -40 -40 0 -40 0 0
40 0 40 40 0 40 0 0 -40z m260 0 l0 -40 -100 0 -100 0 0 40 0 40 100 0 100 0
0 -40z m400 0 l0 -40 -40 0 -40 0 0 40 0 40 40 0 40 0 0 -40z m-1784 -236 c-4
-14 -9 -24 -12 -21 -3 2 -2 17 2 31 3 15 9 25 11 22 3 -3 2 -17 -1 -32z m24
-13 c-10 -40 -30 -57 -30 -26 0 8 4 15 9 15 5 0 12 14 16 31 4 17 9 28 12 26
2 -3 -1 -23 -7 -46z m60 9 c4 0 10 10 13 22 10 36 16 16 10 -30 -3 -23 -10
-42 -15 -42 -5 0 -6 9 -3 20 5 14 2 20 -9 20 -9 0 -16 -9 -16 -20 0 -11 -4
-20 -9 -20 -9 0 -8 10 5 65 7 27 8 28 11 8 3 -13 8 -23 13 -23z m110 30 c0 -5
-7 -10 -15 -10 -21 0 -19 -18 3 -23 13 -4 11 -5 -5 -6 -13 0 -23 -7 -23 -15 0
-8 10 -17 23 -19 16 -3 13 -5 -10 -6 -31 -1 -32 0 -27 32 3 17 7 38 10 45 4
14 44 17 44 2z m79 1 c9 -6 11 -15 6 -27 -4 -11 -7 -28 -6 -39 1 -19 1 -19
-12 -2 -8 9 -17 17 -20 17 -3 0 -8 -8 -10 -17 -3 -12 -5 -10 -6 7 -2 59 16 81
48 61z m101 -1 c0 -5 -9 -10 -20 -10 -25 0 -27 -20 -2 -21 13 0 12 -2 -5 -9
-13 -5 -23 -14 -23 -19 0 -5 10 -12 23 -14 19 -4 18 -4 -5 -6 -23 -1 -28 3
-28 22 0 46 12 67 36 67 13 0 24 -4 24 -10z m170 0 c0 -5 -4 -10 -9 -10 -16 0
-23 -52 -9 -61 9 -6 3 -9 -17 -9 -16 0 -25 4 -19 8 14 9 24 62 13 62 -5 0 -9
5 -9 10 0 6 11 10 25 10 14 0 25 -4 25 -10z m78 -3 c7 -8 8 -25 3 -43 -5 -21
-14 -30 -33 -32 -28 -3 -27 -6 -13 61 6 29 26 35 43 14z m92 3 c0 -5 -9 -10
-20 -10 -25 0 -27 -20 -2 -21 16 -1 16 -2 0 -6 -10 -2 -18 -11 -18 -18 0 -7 8
-16 18 -18 10 -3 6 -5 -11 -6 -27 -1 -28 0 -21 37 4 20 9 40 11 45 6 11 43 9
43 -3z m84 -31 c6 -39 -2 -68 -11 -41 -6 15 -33 16 -33 0 0 -6 -2 -9 -5 -6 -8
7 25 88 35 88 4 0 10 -19 14 -41z m83 24 c3 -7 -5 -9 -19 -6 l-23 5 24 -20
c15 -12 22 -25 18 -36 -7 -19 -42 -22 -53 -4 -5 8 -2 9 10 5 30 -12 41 4 15
23 -20 16 -21 20 -10 34 15 18 32 17 38 -1z m169 4 c12 17 13 16 13 -7 -1 -14
-5 -36 -9 -50 l-8 -25 -1 28 c-1 16 -5 26 -10 23 -5 -4 -12 0 -14 6 -3 7 -6 1
-6 -14 -1 -15 -5 -30 -11 -33 -9 -6 -5 38 7 75 4 12 6 12 15 -3 9 -18 10 -18
24 0z m94 3 c0 -5 -7 -10 -15 -10 -21 0 -19 -18 3 -23 13 -4 11 -5 -5 -6 -13
0 -23 -7 -23 -15 0 -8 10 -17 23 -19 16 -3 13 -5 -10 -6 -31 -1 -32 0 -27 32
3 17 7 38 10 45 4 14 44 17 44 2z m90 0 c0 -5 -9 -10 -20 -10 -25 0 -27 -20
-2 -21 16 -1 16 -2 0 -6 -10 -2 -18 -11 -18 -18 0 -7 8 -16 18 -18 10 -3 6 -5
-10 -6 -30 -1 -32 5 -22 58 5 24 12 31 30 31 13 0 24 -4 24 -10z m90 4 c0 -3
-7 -12 -15 -20 -8 -9 -15 -26 -15 -40 0 -13 -4 -24 -8 -24 -4 0 -6 16 -4 35 3
22 0 35 -7 35 -7 0 -9 5 -6 10 6 10 55 14 55 4z m150 -36 c0 -13 -18 -9 -23 5
-3 6 -6 -3 -6 -20 -1 -18 -5 -33 -10 -33 -9 0 -9 5 4 65 6 29 7 29 21 11 8
-11 14 -23 14 -28z m11 -35 c-8 -14 -10 -7 -7 27 5 57 8 63 13 23 2 -18 0 -41
-6 -50z m88 68 c22 -14 2 -75 -27 -79 -19 -3 -22 1 -22 30 0 19 5 39 12 46 14
14 18 15 37 3z m80 -4 c12 20 14 13 11 -32 -1 -16 -6 -34 -12 -40 -6 -7 -7 -1
-3 17 6 23 4 26 -14 21 -13 -3 -21 -14 -22 -27 0 -11 -3 -15 -6 -8 -3 7 -2 30
2 50 6 33 8 35 20 19 13 -18 14 -18 24 0z m101 3 c0 -5 -9 -10 -20 -10 -25 0
-27 -20 -2 -21 16 -1 16 -2 0 -6 -10 -2 -18 -11 -18 -18 0 -7 8 -16 18 -18 10
-3 6 -5 -10 -6 -30 -1 -32 5 -22 58 5 24 12 31 30 31 13 0 24 -4 24 -10z m59
-22 c9 -32 9 -32 10 -5 1 15 4 27 9 27 4 0 6 -18 4 -40 -5 -47 -24 -49 -33 -4
-4 19 -7 22 -8 9 -1 -11 -6 -27 -12 -35 -7 -11 -8 -4 -3 25 11 65 19 71 33 23z
m121 22 c0 -5 -7 -10 -15 -10 -9 0 -15 -9 -15 -22 0 -13 -5 -30 -11 -38 -8
-11 -9 -5 -4 23 4 23 2 37 -5 37 -5 0 -10 5 -10 10 0 6 14 10 30 10 17 0 30
-4 30 -10z m35 -31 c-6 -32 -4 -40 6 -37 7 2 16 19 20 37 10 47 23 53 14 6 -9
-50 -12 -55 -36 -55 -15 0 -19 7 -19 38 0 35 6 52 18 52 2 0 1 -19 -3 -41z
m80 -15 l-15 -39 6 40 c6 44 16 65 21 49 2 -6 -4 -28 -12 -50z m49 14 c-8 -51
-14 -62 -14 -24 0 16 -4 25 -10 21 -13 -8 -13 1 2 25 20 32 29 23 22 -22z m63
-5 c-3 -10 -5 -2 -5 17 0 19 2 27 5 18 2 -10 2 -26 0 -35z m-2183 -5 c4 -24 3
-38 -4 -38 -5 0 -10 19 -10 42 0 49 5 47 14 -4z"/>
<path d="M2405 4203 c-79 -7 -202 -36 -293 -68 -368 -131 -655 -475 -722 -865
-19 -104 -17 -297 3 -401 90 -463 453 -824 911 -904 171 -29 390 -15 546 36
92 31 244 109 320 164 141 105 280 276 355 437 254 550 24 1210 -518 1484
-179 91 -405 135 -602 117z m228 -70 c-7 -2 -19 -2 -25 0 -7 3 -2 5 12 5 14 0
19 -2 13 -5z m97 -13 c0 -5 -7 -10 -15 -10 -8 0 -15 5 -15 10 0 6 7 10 15 10
8 0 15 -4 15 -10z m85 -20 c3 -5 -1 -10 -9 -10 -9 0 -16 5 -16 10 0 6 4 10 9
10 6 0 13 -4 16 -10z m-275 -29 c0 -16 -11 -19 -92 -25 -132 -9 -247 -39 -363
-95 -485 -233 -689 -804 -460 -1288 130 -275 382 -474 680 -538 121 -27 304
-23 425 8 147 38 274 101 382 190 44 35 68 41 68 16 0 -29 -197 -159 -297
-197 -153 -58 -203 -67 -388 -67 -157 0 -177 2 -265 29 -171 50 -302 127 -429
250 -124 121 -202 243 -254 398 -40 120 -51 192 -50 338 1 210 49 367 168 546
183 275 492 444 828 453 40 1 47 -2 47 -18z m365 -1 c3 -5 -1 -10 -9 -10 -9 0
-16 5 -16 10 0 6 4 10 9 10 6 0 13 -4 16 -10z m85 -40 c13 -8 13 -10 -2 -10
-9 0 -20 5 -23 10 -8 13 5 13 25 0z m-990 -20 c0 -5 -7 -10 -16 -10 -8 0 -12
5 -9 10 3 6 10 10 16 10 5 0 9 -4 9 -10z m1076 -37 c-7 -7 -26 7 -26 19 0 6 6
6 15 -2 9 -7 13 -15 11 -17z m-273 -29 c46 -15 77 -31 77 -39 0 -24 -15 -25
-70 -4 -29 11 -82 27 -118 35 -79 18 -86 22 -72 39 13 16 73 6 183 -31z m-888
16 c-3 -5 -11 -10 -16 -10 -6 0 -7 5 -4 10 3 6 11 10 16 10 6 0 7 -4 4 -10z
m1240 -30 c3 -5 -1 -10 -9 -10 -9 0 -16 5 -16 10 0 6 4 10 9 10 6 0 13 -4 16
-10z m-1320 -29 c-3 -6 -11 -11 -17 -11 -6 0 -6 6 2 15 14 17 26 13 15 -4z
m921 -39 c415 -141 647 -559 548 -982 -24 -100 -103 -254 -174 -338 -57 -67
-64 -72 -78 -58 -15 14 -13 19 19 53 120 128 189 275 211 449 36 293 -107 590
-363 754 -173 111 -391 148 -595 100 -287 -66 -512 -289 -585 -580 -18 -70
-20 -103 -16 -209 5 -141 21 -209 72 -314 117 -238 334 -398 595 -438 67 -10
80 -16 80 -31 0 -16 -6 -17 -57 -12 -201 23 -371 109 -515 262 -82 88 -138
182 -179 303 -28 81 -33 112 -37 224 -5 161 16 265 83 401 90 180 235 315 426
395 112 47 185 59 339 55 121 -2 145 -6 226 -34z m469 8 c3 -5 2 -10 -4 -10
-5 0 -13 5 -16 10 -3 6 -2 10 4 10 5 0 13 -4 16 -10z m-1460 -30 c-3 -5 -11
-10 -16 -10 -6 0 -7 5 -4 10 3 6 11 10 16 10 6 0 7 -4 4 -10z m1525 -41 c0 -6
-4 -7 -10 -4 -5 3 -10 11 -10 16 0 6 5 7 10 4 6 -3 10 -11 10 -16z m-682 -11
c3 -16 -7 -18 -102 -18 -100 0 -106 1 -106 20 0 20 5 21 102 18 89 -3 103 -5
106 -20z m545 -68 c87 -91 104 -117 88 -133 -10 -9 -21 -2 -49 33 -20 25 -60
68 -89 95 -29 28 -53 56 -53 63 0 30 43 6 103 -58z m-1448 50 c-3 -5 -11 -10
-16 -10 -6 0 -7 5 -4 10 3 6 11 10 16 10 6 0 7 -4 4 -10z m560 -21 c0 -21
-167 -109 -183 -96 -19 15 2 33 87 77 78 40 96 44 96 19z m577 -21 c80 -42 99
-61 80 -80 -7 -7 -19 -4 -41 11 -16 12 -55 33 -85 47 -52 24 -66 40 -49 57 9
10 8 11 95 -35z m508 1 c0 -5 -4 -9 -10 -9 -5 0 -10 7 -10 16 0 8 5 12 10 9 6
-3 10 -10 10 -16z m-1700 -28 c0 -12 -20 -25 -27 -18 -7 7 6 27 18 27 5 0 9
-4 9 -9z m1758 -49 c6 -18 -15 -14 -22 4 -4 10 -1 14 6 12 6 -2 14 -10 16 -16z
m-1814 -37 c-6 -16 -24 -21 -24 -7 0 11 11 22 21 22 5 0 6 -7 3 -15z m1860
-41 c4 -10 1 -14 -6 -12 -15 5 -23 28 -10 28 5 0 13 -7 16 -16z m-1137 -10 c3
-9 1 -25 -5 -35 -7 -10 -12 -32 -12 -49 l0 -30 95 0 95 0 0 65 c0 51 3 65 15
65 12 0 15 -14 15 -65 l0 -65 95 0 95 0 0 65 c0 51 3 65 15 65 12 0 15 -14 15
-64 l0 -64 70 -4 c92 -5 103 -16 108 -108 4 -70 4 -70 33 -70 16 0 38 5 48 12
40 24 71 -23 35 -53 -12 -10 -20 -10 -35 -1 -10 7 -32 12 -49 12 l-30 0 0 -95
0 -95 66 0 c48 0 65 -3 62 -12 -3 -8 -28 -14 -66 -16 l-62 -3 0 -89 0 -89 62
-3 c38 -2 63 -8 66 -15 3 -10 -14 -13 -61 -13 l-65 0 -4 -71 c-5 -93 -22 -109
-114 -109 l-64 0 0 -65 c0 -51 -3 -65 -15 -65 -12 0 -15 14 -15 65 l0 65 -95
0 -95 0 0 -65 c0 -51 -3 -65 -15 -65 -12 0 -15 14 -15 65 l0 65 -95 0 -95 0 0
-30 c0 -17 5 -39 12 -49 16 -26 3 -51 -27 -51 -20 0 -25 5 -25 24 0 14 5 28
10 31 6 3 10 22 10 41 l0 34 -70 0 c-95 0 -110 15 -110 110 l0 70 -34 0 c-19
0 -38 -4 -41 -10 -10 -15 -52 -12 -59 5 -14 36 3 46 70 39 l64 -7 0 91 0 91
-62 3 c-38 2 -63 8 -66 16 -3 9 14 12 62 12 l66 0 0 95 0 94 -67 3 c-38 2 -68
8 -68 13 0 6 30 11 68 13 l67 3 0 69 c0 62 2 70 26 89 21 16 41 21 90 21 l64
0 0 30 c0 17 -5 39 -12 49 -15 24 -4 51 22 51 11 0 23 -7 27 -16z m-337 -9 c0
-15 -95 -161 -111 -171 -19 -11 -21 29 -4 60 53 92 115 152 115 111z m1156
-102 c24 -42 26 -73 5 -73 -5 0 -35 39 -66 86 -46 68 -55 88 -44 95 16 11 64
-39 105 -108z m-1590 70 c-10 -10 -19 5 -10 18 6 11 8 11 12 0 2 -7 1 -15 -2
-18z m1944 -38 c0 -8 -2 -15 -4 -15 -2 0 -6 7 -10 15 -3 8 -1 15 4 15 6 0 10
-7 10 -15z m-1984 -52 c-10 -10 -19 5 -10 18 6 11 8 11 12 0 2 -7 1 -15 -2
-18z m2017 -28 c4 -8 2 -17 -3 -20 -6 -4 -10 3 -10 14 0 25 6 27 13 6z m-143
-72 c24 -77 36 -164 26 -190 -7 -17 -8 -17 -22 1 -8 11 -14 33 -14 49 0 16 -9
65 -21 109 -31 125 -6 151 31 31z m-1896 22 c-4 -8 -8 -15 -10 -15 -2 0 -4 7
-4 15 0 8 4 15 10 15 5 0 7 -7 4 -15z m2066 -51 c0 -8 -4 -12 -10 -9 -5 3 -10
10 -10 16 0 5 5 9 10 9 6 0 10 -7 10 -16z m-331 -61 c6 -27 13 -73 14 -103 2
-43 -1 -55 -14 -58 -13 -2 -18 9 -23 55 -4 32 -12 75 -17 96 -11 40 -6 57 16
57 7 0 18 -20 24 -47z m-1759 22 c0 -8 -4 -15 -10 -15 -5 0 -7 7 -4 15 4 8 8
15 10 15 2 0 4 -7 4 -15z m362 -30 c-1 -11 -6 -56 -10 -100 -6 -67 -10 -80
-26 -83 -18 -4 -19 2 -13 84 2 49 8 97 12 107 10 24 41 17 37 -8z m1748 -26
c0 -5 -4 -9 -10 -9 -5 0 -10 7 -10 16 0 8 5 12 10 9 6 -3 10 -10 10 -16z
m-2124 -46 c-10 -10 -19 5 -10 18 6 11 8 11 12 0 2 -7 1 -15 -2 -18z m2121
-45 c-3 -8 -6 -5 -6 6 -1 11 2 17 5 13 3 -3 4 -12 1 -19z m-2125 -50 c-9 -9
-12 -7 -12 12 0 19 3 21 12 12 9 -9 9 -15 0 -24z m2125 -50 c-3 -7 -5 -2 -5
12 0 14 2 19 5 13 2 -7 2 -19 0 -25z m-2117 -33 c0 -8 -4 -15 -10 -15 -5 0
-10 7 -10 15 0 8 5 15 10 15 6 0 10 -7 10 -15z m2113 -60 c-7 -21 -13 -19 -13
6 0 11 4 18 10 14 5 -3 7 -12 3 -20z m-1718 -70 c13 -33 29 -75 36 -92 16 -40
1 -64 -23 -39 -22 22 -72 162 -64 181 11 28 28 11 51 -50z m-385 33 c0 -18 -2
-20 -9 -8 -6 8 -7 18 -5 22 9 14 14 9 14 -14z m2090 -47 c0 -6 -4 -13 -10 -16
-5 -3 -10 1 -10 9 0 9 5 16 10 16 6 0 10 -4 10 -9z m-2070 -46 c0 -8 -2 -15
-4 -15 -2 0 -6 7 -10 15 -3 8 -1 15 4 15 6 0 10 -7 10 -15z m2043 -50 c-5 -13
-23 -22 -23 -11 0 15 14 35 21 31 4 -3 6 -12 2 -20z m-2013 -41 c0 -8 -4 -12
-10 -9 -5 3 -10 10 -10 16 0 5 5 9 10 9 6 0 10 -7 10 -16z m1971 -57 c-8 -8
-11 -7 -11 4 0 20 13 34 18 19 3 -7 -1 -17 -7 -23z m-1931 -28 c0 -5 -4 -9
-10 -9 -5 0 -10 7 -10 16 0 8 5 12 10 9 6 -3 10 -10 10 -16z m1720 -25 c0 -22
-57 -98 -119 -159 -38 -37 -54 -46 -62 -38 -9 9 3 27 46 75 31 35 69 80 82
101 27 38 53 49 53 21z m172 -26 c-7 -7 -12 -8 -12 -2 0 6 3 14 7 17 3 4 9 5
12 2 2 -3 -1 -11 -7 -17z m-1852 -33 c0 -8 -2 -15 -4 -15 -2 0 -6 7 -10 15 -3
8 -1 15 4 15 6 0 10 -7 10 -15z m287 -73 c32 -32 73 -69 92 -83 25 -18 33 -30
28 -43 -6 -16 -9 -16 -39 5 -48 32 -168 151 -168 166 0 27 31 11 87 -45z
m1527 33 c-6 -16 -24 -21 -24 -7 0 11 11 22 21 22 5 0 6 -7 3 -15z m-1758 -42
c-7 -7 -26 7 -26 19 0 6 6 6 15 -2 9 -7 13 -15 11 -17z m1704 -32 c0 -6 -4
-13 -10 -16 -5 -3 -10 1 -10 9 0 9 5 16 10 16 6 0 10 -4 10 -9z m-1650 -37 c0
-8 -4 -12 -10 -9 -5 3 -10 10 -10 16 0 5 5 9 10 9 6 0 10 -7 10 -16z m1588
-36 c-2 -6 -10 -14 -16 -16 -7 -2 -10 2 -6 12 7 18 28 22 22 4z m-1520 -36 c6
-18 -15 -14 -22 4 -4 10 -1 14 6 12 6 -2 14 -10 16 -16z m1149 -38 c7 -21
-221 -102 -252 -90 -27 10 -4 34 38 40 23 4 74 20 112 36 73 29 96 33 102 14z
m303 6 c0 -5 -4 -10 -10 -10 -5 0 -10 5 -10 10 0 6 5 10 10 10 6 0 10 -4 10
-10z m-1382 -29 c3 -8 -1 -12 -9 -9 -7 2 -15 10 -17 17 -3 8 1 12 9 9 7 -2 15
-10 17 -17z m432 -20 c38 -11 94 -23 124 -26 36 -5 56 -12 56 -21 0 -23 -16
-24 -96 -10 -116 21 -168 39 -172 59 -4 21 3 21 88 -2z m875 -11 c-3 -5 -11
-10 -16 -10 -6 0 -7 5 -4 10 3 6 11 10 16 10 6 0 7 -4 4 -10z m-1231 -31 c-6
-11 -24 -2 -24 11 0 5 7 7 15 4 8 -4 12 -10 9 -15z m1156 -19 c0 -5 -7 -10
-16 -10 -8 0 -12 5 -9 10 3 6 10 10 16 10 5 0 9 -4 9 -10z m-1070 -26 c0 -2
-7 -4 -15 -4 -8 0 -15 4 -15 10 0 5 7 7 15 4 8 -4 15 -8 15 -10z m985 -24 c-3
-5 -10 -10 -16 -10 -5 0 -9 5 -9 10 0 6 7 10 16 10 8 0 12 -4 9 -10z m-905
-22 c0 -13 -23 -5 -28 10 -2 7 2 10 12 6 9 -3 16 -11 16 -16z m830 -12 c0 -9
-30 -14 -35 -6 -4 6 3 10 14 10 12 0 21 -2 21 -4z m-745 -16 c3 -5 -1 -10 -9
-10 -9 0 -16 5 -16 10 0 6 4 10 9 10 6 0 13 -4 16 -10z m655 -14 c0 -2 -7 -6
-15 -10 -8 -3 -15 -1 -15 4 0 6 7 10 15 10 8 0 15 -2 15 -4z m-560 -16 c0 -5
-7 -10 -15 -10 -8 0 -15 5 -15 10 0 6 7 10 15 10 8 0 15 -4 15 -10z m465 -10
c-3 -5 -13 -10 -21 -10 -8 0 -12 5 -9 10 3 6 13 10 21 10 8 0 12 -4 9 -10z
m-375 -10 c0 -5 -4 -10 -9 -10 -6 0 -13 5 -16 10 -3 6 1 10 9 10 9 0 16 -4 16
-10z m280 0 c0 -5 -7 -10 -16 -10 -8 0 -12 5 -9 10 3 6 10 10 16 10 5 0 9 -4
9 -10z m-185 -10 c-3 -5 -12 -7 -20 -3 -21 7 -19 13 6 13 11 0 18 -4 14 -10z
m95 0 c0 -5 -7 -10 -15 -10 -8 0 -15 5 -15 10 0 6 7 10 15 10 8 0 15 -4 15
-10z"/>
<path d="M2141 3406 c-8 -9 -11 -117 -9 -377 l3 -364 364 -3 c260 -2 368 1
377 9 11 9 14 78 14 361 0 222 -4 356 -10 369 -10 18 -25 19 -369 19 -291 0
-361 -3 -370 -14z m343 -76 c18 -6 34 -6 51 2 32 14 71 -2 87 -37 8 -18 19
-25 40 -25 43 0 88 -48 88 -95 0 -23 5 -38 16 -42 25 -10 36 -51 21 -82 -11
-23 -11 -30 5 -56 10 -17 18 -36 18 -43 0 -26 -32 -81 -51 -87 -13 -4 -19 -16
-19 -34 0 -37 -35 -68 -85 -74 -22 -3 -54 -9 -72 -12 -21 -5 -39 -2 -54 8 -19
14 -24 14 -45 0 -16 -10 -34 -13 -56 -9 -18 4 -51 10 -73 13 -48 6 -72 25 -80
64 -4 16 -20 42 -36 58 -34 34 -39 83 -12 120 13 19 14 28 5 42 -18 28 -14 64
8 84 11 10 20 28 20 41 0 57 47 104 105 104 16 0 25 6 25 15 0 19 35 55 54 55
8 0 26 -4 40 -10z"/>
<path d="M2424 3296 c-3 -9 -3 -27 0 -41 7 -26 6 -26 -43 -19 -42 5 -52 3 -71
-16 -18 -18 -21 -30 -17 -59 4 -31 1 -39 -17 -47 -30 -13 -32 -48 -5 -68 l23
-15 -27 -25 c-46 -43 -33 -108 26 -129 13 -5 16 -13 11 -31 -9 -35 28 -69 66
-61 16 3 31 2 35 -4 9 -15 58 -14 73 1 17 17 15 83 -3 98 -20 17 -48 9 -60
-18 -5 -12 -15 -22 -22 -22 -22 0 -14 35 12 60 19 17 31 21 55 17 l30 -7 -2
198 -3 197 -28 3 c-18 2 -29 -2 -33 -12z m-8 -141 c3 -14 3 -36 0 -49 -3 -14
-2 -28 4 -31 13 -8 13 -45 0 -45 -5 0 -14 9 -20 20 -6 11 -21 20 -33 20 -23 0
-47 17 -47 32 0 4 13 5 29 2 22 -5 32 -2 39 13 6 11 7 25 2 33 -5 8 -6 18 -4
22 10 16 24 8 30 -17z"/>
<path d="M2532 3298 c-18 -18 -16 -162 2 -178 22 -17 60 -8 71 18 13 29 25 28
25 -1 0 -36 -33 -60 -75 -55 l-35 4 0 -139 c0 -76 5 -147 10 -158 12 -21 64
-27 76 -8 3 6 19 9 34 6 38 -8 70 17 70 53 0 22 7 33 29 44 48 25 55 73 16
112 -30 30 -30 31 -4 53 25 20 19 56 -11 66 -15 5 -19 15 -17 45 2 60 -25 84
-86 76 -49 -5 -49 -5 -43 20 11 43 -32 72 -62 42z m176 -331 c23 -15 13 -29
-18 -22 -28 6 -30 5 -30 -22 0 -27 -15 -53 -31 -53 -3 0 -6 17 -5 38 1 36 0
37 -31 34 -23 -1 -33 2 -33 12 0 8 6 16 13 19 19 7 120 2 135 -6z"/>
<path d="M1670 860 c0 -5 7 -10 15 -10 8 0 15 5 15 10 0 6 -7 10 -15 10 -8 0
-15 -4 -15 -10z"/>
<path d="M2014 845 c-7 -29 -1 -41 15 -30 14 8 14 55 1 55 -5 0 -12 -11 -16
-25z"/>
<path d="M2202 850 c0 -14 2 -19 5 -12 2 6 2 18 0 25 -3 6 -5 1 -5 -13z"/>
<path d="M2967 863 c-4 -3 -7 -17 -7 -30 0 -33 24 -24 28 10 3 26 -7 35 -21
20z"/>
</g>
</svg>
